<svg width="310" height="275" viewBox="0 0 310 275" fill="none" xmlns="http://www.w3.org/2000/svg">
<path d="M98.054 129.731C98.054 129.731 98.7782 138.068 94.4281 143.021C112.316 144.469 117.873 143.021 117.873 143.021L109.533 130.82L98.0493 129.731H98.054Z" fill="url(#paint0_linear_143_194)"/>
<path d="M163.921 130.696C163.921 130.696 164.769 138.872 157.034 143.66C176.493 147.241 183.371 144.005 183.371 144.005L181.208 138.02L173.279 132.868L163.926 130.692L163.921 130.696Z" fill="url(#paint1_linear_143_194)"/>
<path d="M242.236 19.1465L249.128 16.0713C249.559 15.882 249.819 15.4657 249.876 14.9973C249.99 14.0416 251.524 12.1492 260.366 10.0202C271.972 7.22883 276.346 6.58067 278.978 3.68523C279.55 3.05599 280.336 2.64439 281.183 2.56869C284.544 2.27063 286.528 3.18374 291.625 1.48527C296.596 1.21559 296.752 2.06719 299.185 0.960115C300.842 0.207869 302.673 -0.099653 304.486 0.0280869C309.272 0.373458 310.559 2.25171 307.904 3.57642C304.732 5.23704 303.682 1.51838 298.252 5.95616C297.675 6.42927 297.022 6.82669 296.307 7.05378C295.592 7.28087 295.124 8.03785 298.877 10.498C297.817 12.3857 295.28 11.1462 294.002 10.3466C293.396 9.96814 292.681 9.80728 291.971 9.88298C290.934 9.99653 289.401 10.3088 287.919 11.1415C284.374 11.624 282.282 8.88472 277.605 11.4632C272.928 14.0416 264.228 23.8634 264.228 23.8634C264.228 23.8634 264.096 25.3442 258.903 26.2148C257.862 26.3898 256.882 26.8109 256.001 27.3975C253.549 29.0392 251.755 29.2569 250.69 29.1528C250.061 29.0913 249.441 29.342 249.086 29.8672C248.38 30.9033 246.648 32.5403 242.459 33.7609C242.27 33.8177 242.099 33.9217 241.976 34.0779C241.413 34.7875 239.42 36.9686 235.539 38.0378C230.867 39.3247 222.327 40.938 219.748 43.8381C217.168 46.7383 212.013 34.1725 212.013 34.1725L215.237 24.346L225.873 20.6415L239.699 19.7615C240.575 19.7048 241.427 19.4966 242.227 19.137L242.236 19.1465Z" fill="url(#paint2_linear_143_194)"/>
<path d="M172.701 90.7139C172.701 90.7139 175.366 96.9259 169.203 103.114C168.635 103.687 168.186 104.373 167.93 105.139C165.554 112.297 165.625 115.652 157.725 118.504C157.289 118.661 156.877 118.878 156.503 119.153C148.934 124.66 140.911 127.125 132.732 127.593C124.552 128.061 117.102 129.362 117.102 133.393L117.263 136.615C117.263 137.154 116.988 138.044 118.995 139.714C119.729 140.324 120.841 139.742 122.039 141.365C122.332 141.763 122.446 142.278 122.323 142.756C121.769 144.899 119.038 144.511 119.038 144.511C119.038 144.511 116.136 143.868 112.913 140.003C108.459 136.738 106.191 132.376 100.061 132.092C98.5325 132.021 97.1124 131.137 96.5586 129.708C94.9824 125.648 100.421 121.641 104.852 122.445C109.282 123.25 112.69 121.234 113.997 120.392C114.309 120.189 114.584 119.943 114.82 119.659C116.321 117.837 123.189 109.917 130.313 108.919C138.369 107.793 142.719 109.884 142.719 109.884C142.719 109.884 149.649 104.084 155.448 79.927C164.309 83.7923 172.692 90.7187 172.692 90.7187L172.701 90.7139Z" fill="url(#paint3_linear_143_194)"/>
<path d="M157.882 38.8516C157.882 38.8516 152.159 49.3215 152.325 58.902C149.987 58.9824 151.359 50.4475 151.359 50.4475C151.359 50.4475 150.313 49.7237 149.83 53.1868C149.348 56.65 146.044 62.2847 136.051 59.5502C126.059 56.8156 123.806 57.9416 123.806 57.9416C123.806 57.9416 120.421 61.4852 120.743 57.1373C115.91 57.1373 113.894 52.4677 123.806 54.398C133.718 56.3283 143.705 57.8612 136.212 54.6393C132.506 54.4784 132.023 51.8195 132.023 51.8195C132.023 51.8195 132.265 49.9697 120.019 50.2914C107.774 50.6131 129.122 43.3651 129.122 43.3651C129.122 43.3651 135.247 44.8932 139.355 48.8389C139.355 48.8389 144.591 52.0608 145.883 45.5366C146.366 39.9823 144.917 36.9213 144.917 36.9213L154.507 34.3428L157.892 38.8516H157.882Z" fill="url(#paint4_linear_143_194)"/>
<path d="M207.189 2.61598C207.189 2.61598 216.699 -2.05362 223.946 3.90284C225.356 4.45165 226.199 5.07615 226.686 5.57292C227.174 6.06969 227.775 6.33463 228.438 6.39613C229.38 6.47656 230.62 7.00645 230.871 9.14491C230.989 10.1763 231.761 11.0184 232.769 11.255C236.106 12.0309 236.982 12.4756 236.243 14.1031C235.95 14.7513 236.276 15.513 236.948 15.759C237.9 16.1044 238.951 16.639 238.771 17.2729C238.449 18.399 240.219 17.5947 240.219 20.0123C241.99 20.9774 245.535 25.647 233.611 25.0036C230.388 25.0651 225.877 28.3863 225.877 28.3863C225.877 28.3863 218.625 30.1558 219.43 43.0433C218.985 48.801 219.491 52.1223 215.482 52.3872C214.744 52.4345 214.057 52.8178 213.622 53.4139C212.543 54.8853 211.35 55.4908 210.545 55.7463C209.901 55.9497 209.333 56.3377 208.926 56.8818C207.27 59.0912 202.759 64.3001 197.665 63.3681C197.14 63.2735 196.596 63.2735 196.08 63.4107C193.017 64.2434 193.069 63.0038 191.876 64.9436C190.764 66.7556 189.164 66.7603 186.045 67.0395C185.287 67.1057 184.577 67.5126 184.194 68.1702C183.224 69.8355 179.948 70.4222 179.948 70.4222C179.948 70.4222 179.304 73.3224 185.103 75.4135C188.004 76.4591 189.372 77.3485 190.016 77.9683C190.702 78.6307 191.517 79.1369 192.44 79.3876C197.344 80.7171 210.848 85.5996 219.425 100.536C221.361 107.14 219.586 110.201 202.83 119.058C196.383 121.476 190.565 127.072 185.486 128.459C182.585 129.064 185.183 132.083 185.183 132.083C185.183 132.083 185.959 133.261 186.561 134.491C187.072 135.532 188.09 136.241 189.249 136.293C192.241 136.426 195.729 136.071 198.356 138.063C201.618 140.537 206.938 137.017 203.554 141.687C200.169 146.356 176.805 143.376 176.805 143.376C176.805 143.376 173.742 136.53 165.606 135.324C157.388 134.117 156.905 128.719 166.813 123.647C168.91 123.084 169.231 123.888 175.915 118.575C175.915 118.575 176.639 118.575 176.881 115.193C177.122 111.81 178.249 105.934 196.378 102.31C186.352 98.648 183.692 98.525 178.651 96.4622C177.936 96.1689 177.193 95.9607 176.426 95.8708C168.834 95.0003 153.062 87.4873 151.983 80.5657C150.903 73.6441 161.573 69.774 165.52 58.0977C168.663 48.7963 173.037 45.5744 174.684 44.6519C175.181 44.3727 175.546 43.9138 175.721 43.3745C176.147 42.0592 176.578 39.7315 174.784 38.6102C172.204 37.0017 162.136 44.245 158.832 52.8651C157.544 57.776 156.475 61.963 156.839 69.7551C157.204 77.5472 147.415 69.211 152.551 56.9527C157.686 44.6944 167.295 38.473 167.295 38.473C167.295 38.473 168.626 35.9987 163.731 39.0786C158.837 42.1586 151.164 40.4081 146.085 39.864C141.006 39.3199 130.071 38.473 129.707 44.2734C129.342 50.0737 129.584 50.4948 126.446 54.6629C123.454 58.6323 118.877 61.1303 123.246 55.2969C123.757 54.6156 124.069 53.8113 124.169 52.9644C124.434 50.6604 124.585 46.5869 121.854 49.4066C118.555 52.813 110.853 57.4259 107.105 58.0125C106.395 58.1213 105.921 57.3218 106.361 56.754C107.313 55.5381 109.874 53.1962 116.415 48.7443C107.109 53.518 107.109 53.939 103.663 54.4216C103.663 54.4216 100.7 54.1188 113.334 46.0286C107.474 49.3499 107.474 50.315 102.821 50.5563C102.821 50.5563 99.8576 50.6793 111.824 42.9439C106.773 45.1155 106.262 46.4071 103.933 46.6058C103.441 46.6484 103.114 46.0854 103.412 45.6927C104.283 44.5383 107.161 42.2863 116.477 38.7806C116.477 38.7806 121.977 37.2098 125.901 33.7656C130.493 30.2646 133.091 33.3445 140.04 29.2379C144.807 26.4182 149.09 26.1627 151.31 26.2762C152.233 26.3236 153.133 25.9829 153.81 25.3584C155.684 23.6268 161.18 20.4428 176.374 20.2488C177.913 20.2299 180.402 19.9649 181.908 19.6622C186.442 18.7443 194.182 18.1482 196.383 19.3073C196.624 19.4351 197.76 19.8136 198.016 19.9082C200.496 20.826 206.375 19.8325 203.346 17.325C202.115 16.3078 202.03 15.0966 201.926 14.7134C201.845 14.4106 201.632 14.1646 201.357 14.0085C200.827 13.701 200.061 13.138 199.313 12.1539C196.775 12.3053 195.1 11.676 196.065 10.5737C196.435 10.1574 196.468 9.52339 196.07 9.13544C194.977 8.05202 195.128 6.4056 196.7 5.59185C197.14 5.36475 197.429 4.94841 197.528 4.46111C197.836 2.96608 199.862 0.950628 202.934 1.70761C205.05 4.00219 207.165 2.6349 207.165 2.6349L207.189 2.61598Z" fill="url(#paint5_linear_143_194)"/>
<path d="M98.5795 158.681H209.281L204.609 150.629L92.7763 152.72L98.5795 158.681Z" fill="#025471"/>
<path d="M209.281 148.05V158.681L203.076 150.87L204.609 142.576L209.281 148.05Z" fill="url(#paint6_linear_143_194)"/>
<path d="M92.7773 142.576H204.61V152.725H92.7773V142.576Z" fill="url(#paint7_linear_143_194)"/>
<path d="M202.597 155.336L204.774 157.872C204.774 157.872 90.6835 262.794 83.4318 274.551C74.0075 274.551 67.7214 274.48 67.7214 274.48C67.7214 274.48 140.319 204.18 202.602 155.336H202.597Z" fill="#025471"/>
<path d="M157.857 155.833H202.19C202.19 155.833 76.0954 264.171 70.8223 274.962C50.2791 275.047 0.000106812 274.962 0.000106812 274.962C0.000106812 274.962 56.7166 222.669 157.852 155.833H157.857Z" fill="url(#paint8_linear_143_194)"/>
<defs>
<linearGradient id="paint0_linear_143_194" x1="117.873" y1="136.696" x2="94.4281" y2="136.696" gradientUnits="userSpaceOnUse">
<stop offset="0.4" stop-color="#025471"/>
<stop offset="0.53" stop-color="#035774"/>
<stop offset="0.66" stop-color="#076180"/>
<stop offset="0.8" stop-color="#0E7294"/>
<stop offset="0.93" stop-color="#188AB0"/>
<stop offset="1" stop-color="#209BC4"/>
</linearGradient>
<linearGradient id="paint1_linear_143_194" x1="183.371" y1="138.025" x2="157.034" y2="138.025" gradientUnits="userSpaceOnUse">
<stop offset="0.4" stop-color="#025471"/>
<stop offset="0.53" stop-color="#035774"/>
<stop offset="0.66" stop-color="#076180"/>
<stop offset="0.8" stop-color="#0E7294"/>
<stop offset="0.93" stop-color="#188AB0"/>
<stop offset="1" stop-color="#209BC4"/>
</linearGradient>
<linearGradient id="paint2_linear_143_194" x1="309.262" y1="22.1413" x2="212.023" y2="22.1413" gradientUnits="userSpaceOnUse">
<stop offset="0.08" stop-color="#C3EAE9"/>
<stop offset="0.65" stop-color="#209BC4"/>
</linearGradient>
<linearGradient id="paint3_linear_143_194" x1="173.274" y1="112.231" x2="96.2888" y2="112.231" gradientUnits="userSpaceOnUse">
<stop stop-color="#025471"/>
<stop offset="1" stop-color="#209BC4"/>
</linearGradient>
<linearGradient id="paint4_linear_143_194" x1="157.882" y1="47.3108" x2="116.223" y2="47.3108" gradientUnits="userSpaceOnUse">
<stop stop-color="#025471"/>
<stop offset="1" stop-color="#209BC4"/>
</linearGradient>
<linearGradient id="paint5_linear_143_194" x1="235.457" y1="11.7565" x2="137.197" y2="110.066" gradientUnits="userSpaceOnUse">
<stop offset="0.04" stop-color="#C3EAE9"/>
<stop offset="0.31" stop-color="#209BC4"/>
<stop offset="0.73" stop-color="#025471"/>
</linearGradient>
<linearGradient id="paint6_linear_143_194" x1="209.281" y1="150.629" x2="203.076" y2="150.629" gradientUnits="userSpaceOnUse">
<stop offset="0.86" stop-color="#209BC4"/>
<stop offset="1" stop-color="#C3EAE9"/>
</linearGradient>
<linearGradient id="paint7_linear_143_194" x1="204.61" y1="147.648" x2="92.7773" y2="147.648" gradientUnits="userSpaceOnUse">
<stop offset="0.08" stop-color="#C3EAE9"/>
<stop offset="0.65" stop-color="#209BC4"/>
</linearGradient>
<linearGradient id="paint8_linear_143_194" x1="202.19" y1="215.421" x2="0.000106812" y2="215.421" gradientUnits="userSpaceOnUse">
<stop stop-color="#209BC4"/>
<stop offset="1" stop-color="#025471"/>
</linearGradient>
</defs>
</svg>
